<mxfile host="app.diagrams.net" agent="Mozilla/5.0 (Macintosh; Intel Mac OS X 10_15_7) AppleWebKit/605.1.15 (KHTML, like Gecko) Version/16.6 Safari/605.1.15" version="25.0.3">
  <diagram id="C2fSY1v2SiZeoUbDoYyL" name="Page-1">
    <mxGraphModel dx="1363" dy="813" grid="1" gridSize="10" guides="1" tooltips="1" connect="1" arrows="1" fold="1" page="1" pageScale="1" pageWidth="1169" pageHeight="827" math="0" shadow="0">
      <root>
        <mxCell id="0" />
        <mxCell id="1" parent="0" />
        <mxCell id="nHm-hkLveXBqprDUoKE8-34" value="" style="shape=ext;double=1;rounded=0;whiteSpace=wrap;html=1;" vertex="1" parent="1">
          <mxGeometry x="80" y="40" width="1000" height="360" as="geometry" />
        </mxCell>
        <mxCell id="3ne1QswCM8ZiEu4GHsYG-31" value="DNS TUNNELING BASIC" style="text;html=1;strokeColor=none;fillColor=none;align=center;verticalAlign=middle;whiteSpace=wrap;rounded=0;fontStyle=1;fontSize=20;fontColor=#4D4D4D;" parent="1" vertex="1">
          <mxGeometry x="189.5" y="50" width="790" height="30" as="geometry" />
        </mxCell>
        <mxCell id="3ne1QswCM8ZiEu4GHsYG-32" value="" style="line;strokeWidth=2;html=1;fontSize=20;fontColor=#4D4D4D;" parent="1" vertex="1">
          <mxGeometry x="103.5" y="80" width="960" height="10" as="geometry" />
        </mxCell>
        <mxCell id="nHm-hkLveXBqprDUoKE8-24" style="edgeStyle=orthogonalEdgeStyle;rounded=0;orthogonalLoop=1;jettySize=auto;html=1;strokeColor=#788AA3;fontColor=#46495D;fillColor=#B2C9AB;" edge="1" parent="1" source="nHm-hkLveXBqprDUoKE8-6" target="nHm-hkLveXBqprDUoKE8-21">
          <mxGeometry relative="1" as="geometry" />
        </mxCell>
        <mxCell id="nHm-hkLveXBqprDUoKE8-6" value="" style="image;aspect=fixed;html=1;points=[];align=center;fontSize=12;image=img/lib/azure2/other/Azure_Dev_Tunnels.svg;strokeColor=#788AA3;fontColor=#46495D;fillColor=#B2C9AB;" vertex="1" parent="1">
          <mxGeometry x="555.85" y="160" width="68" height="68" as="geometry" />
        </mxCell>
        <mxCell id="nHm-hkLveXBqprDUoKE8-7" value="" style="sketch=0;outlineConnect=0;fontColor=#232F3E;gradientColor=none;fillColor=#DD344C;strokeColor=none;dashed=0;verticalLabelPosition=bottom;verticalAlign=top;align=center;html=1;fontSize=12;fontStyle=0;aspect=fixed;pointerEvents=1;shape=mxgraph.aws4.encrypted_data;" vertex="1" parent="1">
          <mxGeometry x="429" y="130" width="46.1" height="58" as="geometry" />
        </mxCell>
        <mxCell id="nHm-hkLveXBqprDUoKE8-8" value="" style="sketch=0;outlineConnect=0;fontColor=#232F3E;gradientColor=none;fillColor=#DD344C;strokeColor=none;dashed=0;verticalLabelPosition=bottom;verticalAlign=top;align=center;html=1;fontSize=12;fontStyle=0;aspect=fixed;pointerEvents=1;shape=mxgraph.aws4.data_encryption_key;" vertex="1" parent="1">
          <mxGeometry x="710" y="130" width="46.1" height="58" as="geometry" />
        </mxCell>
        <mxCell id="nHm-hkLveXBqprDUoKE8-15" value="" style="edgeStyle=orthogonalEdgeStyle;rounded=0;orthogonalLoop=1;jettySize=auto;html=1;strokeColor=#788AA3;fontColor=#46495D;fillColor=#B2C9AB;" edge="1" parent="1" source="nHm-hkLveXBqprDUoKE8-13" target="nHm-hkLveXBqprDUoKE8-11">
          <mxGeometry relative="1" as="geometry" />
        </mxCell>
        <mxCell id="nHm-hkLveXBqprDUoKE8-13" value="Client" style="sketch=0;pointerEvents=1;shadow=0;dashed=0;html=1;strokeColor=none;fillColor=#505050;labelPosition=center;verticalLabelPosition=bottom;verticalAlign=top;outlineConnect=0;align=center;shape=mxgraph.office.devices.workstation_pc;fontColor=#46495D;" vertex="1" parent="1">
          <mxGeometry x="220" y="255.75" width="80" height="90.51" as="geometry" />
        </mxCell>
        <mxCell id="nHm-hkLveXBqprDUoKE8-18" value="" style="edgeStyle=orthogonalEdgeStyle;rounded=0;orthogonalLoop=1;jettySize=auto;html=1;strokeColor=#788AA3;fontColor=#46495D;fillColor=#B2C9AB;" edge="1" parent="1" source="nHm-hkLveXBqprDUoKE8-11" target="nHm-hkLveXBqprDUoKE8-6">
          <mxGeometry relative="1" as="geometry">
            <Array as="points">
              <mxPoint x="418" y="194" />
            </Array>
          </mxGeometry>
        </mxCell>
        <mxCell id="nHm-hkLveXBqprDUoKE8-20" value="" style="edgeStyle=orthogonalEdgeStyle;rounded=0;orthogonalLoop=1;jettySize=auto;html=1;strokeColor=#788AA3;fontColor=#46495D;fillColor=#B2C9AB;" edge="1" parent="1" source="nHm-hkLveXBqprDUoKE8-11" target="nHm-hkLveXBqprDUoKE8-19">
          <mxGeometry relative="1" as="geometry" />
        </mxCell>
        <mxCell id="nHm-hkLveXBqprDUoKE8-11" value="Local DNS Resolver" style="verticalLabelPosition=bottom;sketch=0;aspect=fixed;html=1;verticalAlign=top;strokeColor=none;align=center;outlineConnect=0;shape=mxgraph.citrix.dns_server;fontColor=#46495D;fillColor=#B2C9AB;" vertex="1" parent="1">
          <mxGeometry x="380" y="254.01" width="76.29" height="92.25" as="geometry" />
        </mxCell>
        <mxCell id="nHm-hkLveXBqprDUoKE8-22" value="" style="edgeStyle=orthogonalEdgeStyle;rounded=0;orthogonalLoop=1;jettySize=auto;html=1;strokeColor=#788AA3;fontColor=#46495D;fillColor=#B2C9AB;" edge="1" parent="1" source="nHm-hkLveXBqprDUoKE8-19" target="nHm-hkLveXBqprDUoKE8-21">
          <mxGeometry relative="1" as="geometry" />
        </mxCell>
        <mxCell id="nHm-hkLveXBqprDUoKE8-19" value="ISP DNS Resolver&lt;div&gt;&lt;br&gt;&lt;/div&gt;" style="verticalLabelPosition=bottom;sketch=0;aspect=fixed;html=1;verticalAlign=top;strokeColor=none;align=center;outlineConnect=0;shape=mxgraph.citrix.dns_server;fontColor=#46495D;fillColor=#B2C9AB;" vertex="1" parent="1">
          <mxGeometry x="551.71" y="254.88" width="76.29" height="92.25" as="geometry" />
        </mxCell>
        <mxCell id="nHm-hkLveXBqprDUoKE8-28" value="" style="edgeStyle=orthogonalEdgeStyle;rounded=0;orthogonalLoop=1;jettySize=auto;html=1;strokeColor=#788AA3;fontColor=#46495D;fillColor=#B2C9AB;" edge="1" parent="1" source="nHm-hkLveXBqprDUoKE8-21" target="nHm-hkLveXBqprDUoKE8-27">
          <mxGeometry relative="1" as="geometry" />
        </mxCell>
        <mxCell id="nHm-hkLveXBqprDUoKE8-21" value="Recursive DNS Resolver&lt;div&gt;&lt;br&gt;&lt;/div&gt;" style="verticalLabelPosition=bottom;sketch=0;aspect=fixed;html=1;verticalAlign=top;strokeColor=none;align=center;outlineConnect=0;shape=mxgraph.citrix.dns_server;fontColor=#46495D;fillColor=#B2C9AB;" vertex="1" parent="1">
          <mxGeometry x="730" y="255.75" width="76.29" height="92.25" as="geometry" />
        </mxCell>
        <mxCell id="nHm-hkLveXBqprDUoKE8-27" value="&lt;div&gt;Root DNS Resolver&lt;/div&gt;" style="verticalLabelPosition=bottom;sketch=0;aspect=fixed;html=1;verticalAlign=top;strokeColor=none;align=center;outlineConnect=0;shape=mxgraph.citrix.dns_server;fontColor=#46495D;fillColor=#B2C9AB;" vertex="1" parent="1">
          <mxGeometry x="910" y="255.75" width="76.29" height="92.25" as="geometry" />
        </mxCell>
        <mxCell id="nHm-hkLveXBqprDUoKE8-30" value="" style="ellipse;whiteSpace=wrap;html=1;strokeWidth=2;fillWeight=2;hachureGap=8;fillColor=#990000;fillStyle=dots;sketch=1;strokeColor=#788AA3;fontColor=#46495D;opacity=40;" vertex="1" parent="1">
          <mxGeometry x="529.5" y="243.6" width="114" height="111.06" as="geometry" />
        </mxCell>
        <mxCell id="nHm-hkLveXBqprDUoKE8-31" value="" style="shape=image;verticalLabelPosition=bottom;verticalAlign=top;aspect=fixed;image=data:image/svg+xml,PHN2ZyB4bWxucz0iaHR0cDovL3d3dy53My5vcmcvMjAwMC9zdmciIHhtbG5zOnhsaW5rPSJodHRwOi8vd3d3LnczLm9yZy8xOTk5L3hsaW5rIiB2ZXJzaW9uPSIxLjEiIGlkPSJMYXllcl8xIiB4PSIwcHgiIHk9IjBweCIgd2lkdGg9IjQ4cHgiIGhlaWdodD0iNDhweCIgdmlld0JveD0iMCAwIDQ4IDQ4IiBlbmFibGUtYmFja2dyb3VuZD0ibmV3IDAgMCA0OCA0OCIgeG1sOnNwYWNlPSJwcmVzZXJ2ZSI+JiN4YTs8ZyBpZD0iRWxsaXBzZV8xIj4mI3hhOwk8Zz4mI3hhOwkJPHBhdGggZmlsbD0iI0YxNjM2MiIgZD0iTTI1LjUsN0MxNC4xNzgsNyw1LDE1LjczLDUsMjYuNVMxNC4xNzgsNDYsMjUuNSw0NkMzMy41NTcsNDYsNDYsMzQuMDA1LDQ2LDI2LjVDNDYsMTUuNzMsMzYuODIyLDcsMjUuNSw3ICAgIHoiLz4mI3hhOwk8L2c+JiN4YTs8L2c+JiN4YTs8ZyBpZD0iRWxsaXBzZV8xX2NvcHkiPiYjeGE7CTxnPiYjeGE7CQk8cGF0aCBmaWxsPSIjMzg0RDY4IiBkPSJNMzQuNzIsMTMuMjhjLTAuMzk1LTAuMzk1LTEuMDM0LTAuMzk1LTEuNDI4LDBsLTkuMjgyLDkuMjgxbC05LjI4Mi05LjI4MSAgICBjLTAuMzk0LTAuMzk1LTEuMDM0LTAuMzk1LTEuNDI4LDBjLTAuMzk1LDAuMzk1LTAuMzk1LDEuMDMzLDAsMS40MjhsOS4yODEsOS4yODJsLTkuMjgxLDkuMjgxYy0wLjM5NSwwLjM5NS0wLjM5NSwxLjAzNCwwLDEuNDI4ICAgIGMwLjM5NCwwLjM5NSwxLjAzNCwwLjM5NSwxLjQyOCwwbDkuMjgyLTkuMjgxbDkuMjgyLDkuMjgxYzAuMzk1LDAuMzk1LDEuMDM0LDAuMzk1LDEuNDI4LDBjMC4zOTQtMC4zOTQsMC4zOTQtMS4wMzMsMC0xLjQyOCAgICBsLTkuMjgyLTkuMjgxbDkuMjgyLTkuMjgyQzM1LjExNCwxNC4zMTMsMzUuMTE0LDEzLjY3NSwzNC43MiwxMy4yOHogTTI0LDJDMTEuODUsMiwyLDExLjg1LDIsMjRzOS44NSwyMiwyMiwyMnMyMi05Ljg1LDIyLTIyICAgIFMzNi4xNSwyLDI0LDJ6IE0yNCw0NEMxMi45NTQsNDQsNCwzNS4wNDYsNCwyNFMxMi45NTQsNCwyNCw0czIwLDguOTU0LDIwLDIwUzM1LjA0Niw0NCwyNCw0NHoiLz4mI3hhOwk8L2c+JiN4YTs8L2c+JiN4YTs8L3N2Zz4=;strokeColor=#788AA3;fontColor=#46495D;fillColor=#B2C9AB;opacity=90;" vertex="1" parent="1">
          <mxGeometry x="595.5" y="243.6" width="48" height="48" as="geometry" />
        </mxCell>
        <mxCell id="nHm-hkLveXBqprDUoKE8-33" value="" style="shape=image;verticalLabelPosition=bottom;verticalAlign=top;aspect=fixed;image=data:image/svg+xml,PHN2ZyB4bWxucz0iaHR0cDovL3d3dy53My5vcmcvMjAwMC9zdmciIHhtbG5zOnhsaW5rPSJodHRwOi8vd3d3LnczLm9yZy8xOTk5L3hsaW5rIiB2ZXJzaW9uPSIxLjEiIGlkPSJMYXllcl8xIiB4PSIwcHgiIHk9IjBweCIgd2lkdGg9IjQ4cHgiIGhlaWdodD0iNDhweCIgdmlld0JveD0iMCAwIDQ4IDQ4IiBlbmFibGUtYmFja2dyb3VuZD0ibmV3IDAgMCA0OCA0OCIgeG1sOnNwYWNlPSJwcmVzZXJ2ZSI+JiN4YTs8ZyBpZD0iY29sb3JfMzFfIj4mI3hhOwk8Zz4mI3hhOwkJPHBhdGggZmlsbD0iI0YxNjM2MiIgZD0iTTQ1Ljc2OSwzMS45MDRsLTguODUzLTEzLjkxOGMtMC4yNzYtMC40ODEtMC44ODgtMC42NDYtMS4zNjYtMC4zNjhMMTQuODQsMjkuNjMxICAgIGMtMC40NzksMC4yNzgtMC42NDIsMC44OTUtMC4zNjYsMS4zNzZMMjMuMjUyLDQ1YzAuMjc2LDAuNDgxLDAuODg4LDAuNjQ2LDEuMzY2LDAuMzY4TDQ1LjQwMywzMy4yOCAgICBDNDUuODgxLDMzLjAwMiw0Ni4wNDUsMzIuMzg3LDQ1Ljc2OSwzMS45MDR6Ii8+JiN4YTsJPC9nPiYjeGE7PC9nPiYjeGE7PGcgaWQ9Im91dGxpbmVfMzBfIj4mI3hhOwk8Zz4mI3hhOwkJPHBhdGggZmlsbD0iIzM4NEQ2OCIgZD0iTTE5LjAxMSw0MC41MDRoLTE2Yy0wLjU1MiwwLTEsMC40NDMtMSwxczAuNDQ4LDEsMSwxaDE2YzAuNTUyLDAsMS0wLjQ0MywxLTFTMTkuNTYzLDQwLjUwNCwxOS4wMTEsNDAuNTA0ICAgIHogTTQuMDExLDM3LjUwNGMwLDAuNTU3LDAuNDQ4LDEsMSwxaDEyYzAuNTUyLDAsMS0wLjQ0MywxLTFzLTAuNDQ4LTEtMS0xaC0xMkM0LjQ1OCwzNi41MDQsNC4wMTEsMzYuOTQ3LDQuMDExLDM3LjUwNHogICAgIE03LjAxMSwzMi41MDRoLTRjLTAuNTUyLDAtMSwwLjQ0My0xLDFzMC40NDgsMSwxLDFoNGMwLjU1MiwwLDEtMC40NDMsMS0xUzcuNTYzLDMyLjUwNCw3LjAxMSwzMi41MDR6IE00NS44NzQsMjkuMzYxICAgIGwtNS4wNzUtOC42ODVjMC4xOTktMC4wNjMsMC4zOTEtMC4xNDUsMC41Ny0wLjI0NmMwLjQ4My0wLjI3NiwwLjg4My0wLjY2NywxLjE1LTEuMDMxYzAuNTU5LTAuNzYzLDAuNTc3LTEuNDY4LDAuNDk0LTEuOTI2ICAgIGMtMC4wMDgtMC4wNDUtMC4wMTgtMC4wOS0wLjAyOC0wLjEzNGMwLjA5OC0wLjA0NSwwLjItMC4wOTksMC4yOTEtMC4xNWMwLjg3NS0wLjUxLDEuNDc5LTEuNDEsMS41NzYtMi4zNTIgICAgYzAuMTI5LTEuMjYzLTAuNjA5LTIuNDA0LTEuNTMyLTMuMTQ3YzAuNTM1LTEuNDU5LDAuNjY1LTMuMDExLDAuMzg1LTQuNjI2Yy0wLjI1LTEuNDQ1LTAuOTE3LTMuOTUzLTIuNTYtNC41MDkgICAgYy0wLjI4NS0wLjA5Ny0wLjU5OC0wLjA3OS0wLjg0OSwwLjA5Yy0wLjI1MywwLjE1Mi0wLjQyNCwwLjQxMS0wLjQ2OCwwLjcwNmwtMC4wNjEsMC40NTJjLTAuMDkyLDAuNzE5LTAuMTI2LDAuOTg3LTAuNTU2LDEuNDYzICAgIGMtMC40MzUsMC40NzktMC45NTMsMC45NDgtMS41ODcsMS40MzRjLTEuMjksMC45ODQtMi42NDcsMS44ODYtNC4wMzcsMi42NzhjLTEuMzE2LDAuNzUxLTIuODA3LDEuNjAyLTMuNjY3LDMuMTIgICAgYy0wLjgxMSwxLjQzMi0wLjk1MywyLjkyMy0wLjQ3OCw0LjM3NmwtOS4wMDgsNS4xMzhjLTEuMDM2LTEuMTMzLTIuNDE1LTEuNzU3LTQuMDc0LTEuNzc4Yy0xLjc2Mi0wLjAyMy0zLjI1MywwLjgyNi00LjU2OSwxLjU3NyAgICBjLTEuMzg5LDAuNzkyLTIuODU4LDEuNTA0LTQuMzY2LDIuMTE0Yy0wLjc0MiwwLjMtMS40MTIsMC41MS0yLjA1LDAuNjQyYy0wLjYzMiwwLjEzLTAuODg1LDAuMDI0LTEuNTYxLTAuMjU2bC0wLjQyNy0wLjE3NCAgICBjLTAuMjgtMC4xMS0wLjU5Mi0wLjA5NC0wLjg1MywwLjA0N2MtMC4yNzMsMC4xMzEtMC40NDUsMC4zOS0wLjUwMywwLjY4MmMtMC4zMzQsMS42ODQsMS41MzEsMy41MDgsMi42NzIsNC40NDUgICAgYzEuMjc2LDEuMDQ3LDIuNzAxLDEuNzEyLDQuMjQ4LDEuOTgzYzAuMTksMS4xNjEsMC44MjEsMi4zNjMsMS45OTMsMi44ODRjMC44NzQsMC4zODksMS45NjUsMC4zMjIsMi44NS0wLjE3MiAgICBjMC4wOTEtMC4wNTEsMC4xODgtMC4xMTEsMC4yNzctMC4xNzNjMC4wMzMsMC4wMzEsMC4wNjgsMC4wNjIsMC4xMDMsMC4wOTFjMC4zNiwwLjMsMC45ODcsMC42MzcsMS45MzUsMC41NCAgICBjMC40NTMtMC4wNDYsMC45OTYtMC4xOTMsMS40NzktMC40NjljMC4xNzktMC4xMDMsMC4zNDYtMC4yMjYsMC41MDEtMC4zNjRsNS4wNzUsOC42ODVjMC4yNzksMC40NzcsMC44OTYsMC42NCwxLjM3OCwwLjM2NCAgICBsMjAuOTYzLTExLjk1N0M0NS45ODcsMzAuNDQ3LDQ2LjE1MiwyOS44MzgsNDUuODc0LDI5LjM2MXogTTMxLjY5OSwxMy41MzJjMC41OTItMS4wNDYsMS43NzktMS43MjMsMi45MjYtMi4zNzcgICAgYzEuNDY2LTAuODM2LDIuODk4LTEuNzg3LDQuMjU3LTIuODI1YzAuNzMxLTAuNTU5LDEuMzM3LTEuMTA3LDEuODUzLTEuNjc4YzAuMjUxLTAuMjc3LDAuNDM3LTAuNTQxLDAuNTc2LTAuNzk3ICAgIGMwLjE0OCwwLjQzLDAuMjg1LDAuOTQyLDAuMzg1LDEuNTE2YzAuMjU5LDEuNDk3LDAuMDY4LDIuOTE5LTAuNTY4LDQuMjI4Yy0wLjI0NCwwLjUwMS0wLjAzMiwxLjExMywwLjQ3NCwxLjM2OSAgICBjMC42MzUsMC4zMjEsMS4yODIsMS4wMzEsMS4yMjIsMS42MmMtMC4wMzIsMC4zMDgtMC4yNzMsMC42NDMtMC42MDEsMC44MzRjLTAuMTE3LDAuMDU0LTAuNDI3LDAuMjE5LTAuNzA3LDAuMTAxICAgIGMtMC40ODYtMC4yMDUtMS4wMzktMC4wMTMtMS4yODMsMC40NDRjLTAuMjQzLDAuNDU4LTAuMDk3LDEuMDMzLDAuMzM5LDEuMzMxYzAuMjQ3LDAuMTY5LDAuNDEsMC4zNTUsMC40MzYsMC40OTkgICAgYzAuMDIyLDAuMTItMC4wNjUsMC4yNy0wLjE0MSwwLjM3NGMtMC4yMjUsMC4zMDctMC41ODQsMC41NjUtMC44MTcsMC41ODdjLTAuMDQ3LDAuMDA1LTAuMDY5LDAuMDAyLTAuMTIxLTAuMDQ0ICAgIGMtMC4xMi0wLjEwNi0wLjI1OC0wLjE3Mi0wLjQwMi0wLjIxNGwtMi43My00LjY3MWMtMC4yNzgtMC40NzctMC44OTUtMC42NC0xLjM3Ny0wLjM2NWwtNC4xNTMsMi4zNjkgICAgQzMxLjEyNywxNS4wNzQsMzEuMjUxLDE0LjMyMiwzMS42OTksMTMuNTMyeiBNMTYuODAzLDMxLjkwNGMwLjAxNSwwLjA2NiwwLjAwNSwwLjA4OC0wLjAyMiwwLjEyNSAgICBjLTAuMTM2LDAuMTg5LTAuNTQyLDAuMzY3LTAuOTIzLDAuNDA2Yy0wLjEyOSwwLjAxMy0wLjMwNCwwLjAxMy0wLjM5OS0wLjA2NmMtMC4xMTItMC4wOTQtMC4xOTQtMC4zMjctMC4yMTktMC42MjMgICAgYy0wLjA0NC0wLjUyMS0wLjQ3NS0wLjkzNS0wLjk5OC0wLjk1NWMtMC41MjItMC4wMi0wLjk2OCwwLjM1Ny0xLjAzMSwwLjg3NWMtMC4wMzcsMC4yOTgtMC4zMzYsMC40ODEtMC40NDEsMC41NTUgICAgYy0wLjMzMiwwLjE4NS0wLjc0NywwLjIyNC0xLjAzMiwwLjA5N2MtMC41NDYtMC4yNDMtMC44NDUtMS4xNTEtMC44MDktMS44NTRjMC4wMjktMC41NjEtMC40MDItMS4wNDktMC45NjMtMS4wOTEgICAgYy0xLjQ2NS0wLjEwOS0yLjgwOC0wLjY1Ny0zLjk5LTEuNjI3QzUuNTIzLDI3LjM3Myw1LjE0MiwyNyw0Ljg0LDI2LjY1OGMwLjI5MywwLjAwOSwwLjYxOC0wLjAxOSwwLjk4Ni0wLjA5NSAgICBjMC43NTgtMC4xNTYsMS41NDItMC40LDIuMzk3LTAuNzQ2YzEuNTktMC42NDQsMy4xMzktMS4zOTQsNC42MDUtMi4yM2MxLjE0Ny0wLjY1NCwyLjMzNC0xLjMzMSwzLjU0Ny0xLjMxNCAgICBjMC45MTcsMC4wMTIsMS42MzgsMC4yODIsMi4yMzQsMC43OGwtNC4xNTMsMi4zNjhjLTAuNDgyLDAuMjc1LTAuNjQ3LDAuODg1LTAuMzY5LDEuMzYxbDIuNzI5LDQuNjcxICAgIEMxNi43ODEsMzEuNTk4LDE2Ljc3LDMxLjc0OCwxNi44MDMsMzEuOTA0eiBNMjQuNDA2LDQwLjQ1NmwtOC4wNjktMTMuODA4bDE5LjIxNi0xMC45Nmw4LjA2OSwxMy44MDdMMjQuNDA2LDQwLjQ1NnogICAgIE0zNS4zMiwxOS4yNzNjLTAuMjc4LTAuNDc3LTAuODk2LTAuNjQtMS4zNzctMC4zNjRjLTAuMzM4LDAuMTkyLTAuMzg3LDAuMzk1LTAuMzg3LDAuMzk1bC00LjIwMSw3LjE5OGwtOC4zNDQsMC4wMDIgICAgYy0wLjU1MiwwLTEsMC40NDMtMSwxczAuNDQ4LDEsMSwxbDguOTAzLDAuMDEyYzAsMCwwLjE5OSwwLjA2MiwwLjU0LTAuMTMzYzAuMTctMC4wOTgsMC4yODUtMC4yNDQsMC4zNzEtMC40MDNsMC4wMTYsMC4wMDggICAgbDQuNDk4LTcuNzQ4bC0wLjAxNi0wLjAwOEMzNS40NzgsMTkuOTM4LDM1LjUsMTkuNTgyLDM1LjMyLDE5LjI3M3oiLz4mI3hhOwk8L2c+JiN4YTs8L2c+JiN4YTs8L3N2Zz4=;strokeColor=#788AA3;fontColor=#46495D;fillColor=#B2C9AB;" vertex="1" parent="1">
          <mxGeometry x="560" y="112" width="48" height="48" as="geometry" />
        </mxCell>
      </root>
    </mxGraphModel>
  </diagram>
</mxfile>
